{
  "accessors": [
    {
      "bufferView": 2,
      "componentType": 5126,
      "count": 2992,
      "max": [
        6.202479362487793,
        2.3300576210021973,
        1.537471055984497
      ],
      "min": [
        -6.202479362487793,
        -2.078627586364746,
        -1.4911965131759644
      ],
      "type": "VEC3"
    },
    {
      "bufferView": 2,
      "byteOffset": 35904,
      "componentType": 5126,
      "count": 2992,
      "max": [
        1.0,
        1.0,
        1.0
      ],
      "min": [
        -1.0,
        -1.0,
        -1.0
      ],
      "type": "VEC3"
    },
    {
      "bufferView": 1,
      "componentType": 5126,
      "count": 2992,
      "max": [
        0.0,
        0.0
      ],
      "min": [
        0.0,
        0.0
      ],
      "type": "VEC2"
    },
    {
      "bufferView": 0,
      "componentType": 5125,
      "count": 5805,
      "type": "SCALAR"
    },
    {
      "bufferView": 2,
      "byteOffset": 71808,
      "componentType": 5126,
      "count": 2445,
      "max": [
        6.202479362487793,
        2.3300576210021973,
        1.537471055984497
      ],
      "min": [
        -6.202479362487793,
        -2.078627586364746,
        -1.0377326011657715
      ],
      "type": "VEC3"
    },
    {
      "bufferView": 2,
      "byteOffset": 101148,
      "componentType": 5126,
      "count": 2445,
      "max": [
        1.0,
        1.0,
        1.0
      ],
      "min": [
        -1.0,
        -1.0,
        -1.0
      ],
      "type": "VEC3"
    },
    {
      "bufferView": 1,
      "byteOffset": 23936,
      "componentType": 5126,
      "count": 2445,
      "max": [
        0.0,
        0.0
      ],
      "min": [
        0.0,
        0.0
      ],
      "type": "VEC2"
    },
    {
      "bufferView": 0,
      "byteOffset": 23220,
      "componentType": 5125,
      "count": 5655,
      "type": "SCALAR"
    },
    {
      "bufferView": 2,
      "byteOffset": 130488,
      "componentType": 5126,
      "count": 102,
      "max": [
        1.564584493637085,
        1.4235349893569946,
        1.0142245292663574
      ],
      "min": [
        -1.564584493637085,
        -0.39596784114837646,
        -0.2818778455257416
      ],
      "type": "VEC3"
    },
    {
      "bufferView": 2,
      "byteOffset": 131712,
      "componentType": 5126,
      "count": 102,
      "max": [
        0.9238803386688232,
        0.7889165282249451,
        0.9238803386688232
      ],
      "min": [
        -0.9238803386688232,
        -1.0,
        -0.9238803386688232
      ],
      "type": "VEC3"
    },
    {
      "bufferView": 1,
      "byteOffset": 43496,
      "componentType": 5126,
      "count": 102,
      "max": [
        0.0,
        0.0
      ],
      "min": [
        0.0,
        0.0
      ],
      "type": "VEC2"
    },
    {
      "bufferView": 0,
      "byteOffset": 45840,
      "componentType": 5125,
      "count": 186,
      "type": "SCALAR"
    },
    {
      "bufferView": 2,
      "byteOffset": 132936,
      "componentType": 5126,
      "count": 58,
      "max": [
        0.7430455684661865,
        0.4035481810569763,
        0.9809458255767822
      ],
      "min": [
        -0.7430455684661865,
        -1.4514272212982178,
        0.015152111649513245
      ],
      "type": "VEC3"
    },
    {
      "bufferView": 2,
      "byteOffset": 133632,
      "componentType": 5126,
      "count": 58,
      "max": [
        0.9124751687049866,
        0.9898415803909302,
        0.41704750061035156
      ],
      "min": [
        -0.9124751687049866,
        -0.9859516620635986,
        0.14108768105506897
      ],
      "type": "VEC3"
    },
    {
      "bufferView": 1,
      "byteOffset": 44312,
      "componentType": 5126,
      "count": 58,
      "max": [
        0.0,
        0.0
      ],
      "min": [
        0.0,
        0.0
      ],
      "type": "VEC2"
    },
    {
      "bufferView": 0,
      "byteOffset": 46584,
      "componentType": 5125,
      "count": 126,
      "type": "SCALAR"
    },
    {
      "bufferView": 2,
      "byteOffset": 134328,
      "componentType": 5126,
      "count": 8104,
      "max": [
        1.7296274900436401,
        1.051997184753418,
        1.8631656169891357
      ],
      "min": [
        -1.7296274900436401,
        -0.7966761589050293,
        -1.4329543113708496
      ],
      "type": "VEC3"
    },
    {
      "bufferView": 2,
      "byteOffset": 231576,
      "componentType": 5126,
      "count": 8104,
      "max": [
        1.0,
        1.0,
        1.0
      ],
      "min": [
        -1.0,
        -1.0,
        -1.0
      ],
      "type": "VEC3"
    },
    {
      "bufferView": 1,
      "byteOffset": 44776,
      "componentType": 5126,
      "count": 8104,
      "max": [
        0.0,
        0.0
      ],
      "min": [
        0.0,
        0.0
      ],
      "type": "VEC2"
    },
    {
      "bufferView": 0,
      "byteOffset": 47088,
      "componentType": 5125,
      "count": 13224,
      "type": "SCALAR"
    },
    {
      "bufferView": 2,
      "byteOffset": 328824,
      "componentType": 5126,
      "count": 8,
      "max": [
        1.4553648233413696,
        0.1106729656457901,
        1.2975797653198242
      ],
      "min": [
        -1.4553648233413696,
        0.01155068725347519,
        1.2975797653198242
      ],
      "type": "VEC3"
    },
    {
      "bufferView": 2,
      "byteOffset": 328920,
      "componentType": 5126,
      "count": 8,
      "max": [
        1.5991682857929845e-06,
        0.0,
        1.0
      ],
      "min": [
        -1.5562862927254173e-06,
        0.0,
        1.0
      ],
      "type": "VEC3"
    },
    {
      "bufferView": 1,
      "byteOffset": 109608,
      "componentType": 5126,
      "count": 8,
      "max": [
        0.0,
        0.0
      ],
      "min": [
        0.0,
        0.0
      ],
      "type": "VEC2"
    },
    {
      "bufferView": 0,
      "byteOffset": 99984,
      "componentType": 5125,
      "count": 12,
      "type": "SCALAR"
    },
    {
      "bufferView": 2,
      "byteOffset": 329016,
      "componentType": 5126,
      "count": 8,
      "max": [
        0.1757117658853531,
        -0.4184191823005676,
        -0.9746361970901489
      ],
      "min": [
        -0.1757117211818695,
        -0.4184191823005676,
        -1.3260596990585327
      ],
      "type": "VEC3"
    },
    {
      "bufferView": 2,
      "byteOffset": 329112,
      "componentType": 5126,
      "count": 8,
      "max": [
        0.0,
        -1.0,
        8.53185753157959e-08
      ],
      "min": [
        0.0,
        -1.0,
        8.53185753157959e-08
      ],
      "type": "VEC3"
    },
    {
      "bufferView": 1,
      "byteOffset": 109672,
      "componentType": 5126,
      "count": 8,
      "max": [
        0.9999000430107117,
        0.9999000430107117
      ],
      "min": [
        9.998001041822135e-05,
        9.998001041822135e-05
      ],
      "type": "VEC2"
    },
    {
      "bufferView": 0,
      "byteOffset": 100032,
      "componentType": 5125,
      "count": 18,
      "type": "SCALAR"
    }
  ],
  "asset": {
    "extras": {
      "author": "Dinendra Neyo (https://sketchfab.com/NeyoZ)",
      "license": "CC-BY-4.0 (http://creativecommons.org/licenses/by/4.0/)",
      "source": "https://sketchfab.com/3d-models/spider-drone-3d-model-9a8aaad68a54456da8d730a403d4f202",
      "title": "Spider Drone 3D Model"
    },
    "generator": "Sketchfab-15.25.0",
    "version": "2.0"
  },
  "bufferViews": [
    {
      "buffer": 0,
      "byteLength": 100104,
      "name": "floatBufferViews",
      "target": 34963
    },
    {
      "buffer": 0,
      "byteLength": 109736,
      "byteOffset": 100104,
      "byteStride": 8,
      "name": "floatBufferViews",
      "target": 34962
    },
    {
      "buffer": 0,
      "byteLength": 329208,
      "byteOffset": 209840,
      "byteStride": 12,
      "name": "floatBufferViews",
      "target": 34962
    }
  ],
  "buffers": [
    {
      "byteLength": 539048,
      "uri": "scene.bin"
    }
  ],
  "extensionsUsed": [
    "KHR_materials_specular"
  ],
  "images": [
    {
      "uri": "textures/uv_text_camera_baseColor.png"
    }
  ],
  "materials": [
    {
      "doubleSided": true,
      "extensions": {
        "KHR_materials_specular": {
          "specularColorFactor": [
            1.0,
            1.0,
            1.0
          ],
          "specularFactor": 1.0
        }
      },
      "name": "col_master",
      "pbrMetallicRoughness": {
        "baseColorFactor": [
          1.0,
          0.0,
          0.0,
          1.0
        ],
        "metallicFactor": 0.0,
        "roughnessFactor": 0.3512968596648533
      }
    },
    {
      "doubleSided": true,
      "name": "col_1",
      "pbrMetallicRoughness": {
        "baseColorFactor": [
          0.0,
          0.0005070348148522218,
          0.14194240025030147,
          1.0
        ],
        "metallicFactor": 0.0,
        "roughnessFactor": 0.5105703193490039
      }
    },
    {
      "doubleSided": true,
      "name": "col_3",
      "pbrMetallicRoughness": {
        "baseColorFactor": [
          1.0,
          0.0,
          0.0,
          1.0
        ],
        "metallicFactor": 0.0,
        "roughnessFactor": 0.8239417257461427
      }
    },
    {
      "doubleSided": true,
      "name": "col_4",
      "pbrMetallicRoughness": {
        "baseColorFactor": [
          0.0,
          1.0,
          0.9525280055184331,
          1.0
        ],
        "metallicFactor": 0.0,
        "roughnessFactor": 0.6298668465643091
      }
    },
    {
      "doubleSided": true,
      "name": "uv__tex_blury",
      "pbrMetallicRoughness": {
        "baseColorFactor": [
          0.0,
          0.0,
          0.0,
          1.0
        ],
        "metallicFactor": 0.0,
        "roughnessFactor": 0.8239417257461427
      }
    },
    {
      "doubleSided": true,
      "name": "col_2",
      "pbrMetallicRoughness": {
        "baseColorFactor": [
          0.8,
          0.8,
          0.8,
          1.0
        ],
        "metallicFactor": 0.0,
        "roughnessFactor": 0.8239417257461427
      }
    },
    {
      "doubleSided": true,
      "name": "uv_text_camera",
      "pbrMetallicRoughness": {
        "baseColorTexture": {
          "index": 0
        },
        "roughnessFactor": 0.8239417257461427
      }
    }
  ],
  "meshes": [
    {
      "name": "drone_costum_col_master_0",
      "primitives": [
        {
          "attributes": {
            "NORMAL": 1,
            "POSITION": 0,
            "TEXCOORD_0": 2
          },
          "indices": 3,
          "material": 0,
          "mode": 4
        }
      ]
    },
    {
      "name": "drone_costum_col_1_0",
      "primitives": [
        {
          "attributes": {
            "NORMAL": 5,
            "POSITION": 4,
            "TEXCOORD_0": 6
          },
          "indices": 7,
          "material": 1,
          "mode": 4
        }
      ]
    },
    {
      "name": "drone_costum_col_3_0",
      "primitives": [
        {
          "attributes": {
            "NORMAL": 9,
            "POSITION": 8,
            "TEXCOORD_0": 10
          },
          "indices": 11,
          "material": 2,
          "mode": 4
        }
      ]
    },
    {
      "name": "drone_costum_col_4_0",
      "primitives": [
        {
          "attributes": {
            "NORMAL": 13,
            "POSITION": 12,
            "TEXCOORD_0": 14
          },
          "indices": 15,
          "material": 3,
          "mode": 4
        }
      ]
    },
    {
      "name": "drone_costum_uv__tex_blury_0",
      "primitives": [
        {
          "attributes": {
            "NORMAL": 17,
            "POSITION": 16,
            "TEXCOORD_0": 18
          },
          "indices": 19,
          "material": 4,
          "mode": 4
        }
      ]
    },
    {
      "name": "drone_costum_col_2_0",
      "primitives": [
        {
          "attributes": {
            "NORMAL": 21,
            "POSITION": 20,
            "TEXCOORD_0": 22
          },
          "indices": 23,
          "material": 5,
          "mode": 4
        }
      ]
    },
    {
      "name": "drone_costum_uv_text_camera_0",
      "primitives": [
        {
          "attributes": {
            "NORMAL": 25,
            "POSITION": 24,
            "TEXCOORD_0": 26
          },
          "indices": 27,
          "material": 6,
          "mode": 4
        }
      ]
    }
  ],
  "nodes": [
    {
      "children": [
        1
      ],
      "matrix": [
        1.0,
        1.6081226229577284e-16,
        2.8327693431939995e-16,
        0.0,
        2.832769343193999e-16,
        9.494107490944938e-16,
        -1.0,
        0.0,
        -1.6081226229577292e-16,
        1.0,
        9.494107490944938e-16,
        0.0,
        0.0,
        0.0,
        0.0,
        1.0
      ],
      "name": "Sketchfab_model"
    },
    {
      "children": [
        2
      ],
      "matrix": [
        0.009999999776482582,
        0.0,
        0.0,
        0.0,
        0.0,
        0.0,
        0.009999999776482582,
        0.0,
        0.0,
        -0.009999999776482582,
        0.0,
        0.0,
        0.0,
        0.0,
        0.0,
        1.0
      ],
      "name": "drone_costum.fbx"
    },
    {
      "children": [
        3
      ],
      "name": "RootNode"
    },
    {
      "children": [
        4,
        5,
        6,
        7,
        8,
        9,
        10
      ],
      "matrix": [
        100.0,
        0.0,
        0.0,
        0.0,
        0.0,
        -3.237726320905063e-05,
        -198.73022460937239,
        0.0,
        0.0,
        99.99999999999868,
        -1.629206793918314e-05,
        0.0,
        0.0,
        64.80095672607422,
        -1.9371511370991357e-05,
        1.0
      ],
      "name": "drone_costum"
    },
    {
      "mesh": 0,
      "name": "drone_costum_col_master_0"
    },
    {
      "mesh": 1,
      "name": "drone_costum_col_1_0"
    },
    {
      "mesh": 2,
      "name": "drone_costum_col_3_0"
    },
    {
      "mesh": 3,
      "name": "drone_costum_col_4_0"
    },
    {
      "mesh": 4,
      "name": "drone_costum_uv__tex_blury_0"
    },
    {
      "mesh": 5,
      "name": "drone_costum_col_2_0"
    },
    {
      "mesh": 6,
      "name": "drone_costum_uv_text_camera_0"
    }
  ],
  "samplers": [
    {
      "magFilter": 9729,
      "minFilter": 9987,
      "wrapS": 10497,
      "wrapT": 10497
    }
  ],
  "scene": 0,
  "scenes": [
    {
      "name": "Sketchfab_Scene",
      "nodes": [
        0
      ]
    }
  ],
  "textures": [
    {
      "sampler": 0,
      "source": 0
    }
  ]
}
